<svg width="105" height="100" viewBox="0 0 105 100" fill="none" xmlns="http://www.w3.org/2000/svg">
<path d="M50.3013 1.122C50.3013 1.237 50.7035 3.536 51.2064 6.237C51.7094 8.919 52.1115 11.294 52.1115 11.486C52.1115 11.85 51.9708 11.869 49.98 11.869C47.6469 11.869 47.2448 11.984 46.7817 12.827C46.2987 13.708 46.3995 14.321 47.1639 15.049L47.8475 15.7H66.7538H85.6401L85.7609 14.091C85.8417 12.942 86.163 11.639 86.8266 9.59C87.3495 8 87.7317 6.659 87.6719 6.602C87.611 6.545 79.4252 5.28 69.4901 3.824C59.534 2.349 51.1665 1.085 50.8652 1.027C50.5218 0.968999 50.3013 1.007 50.3013 1.122Z" fill="#FFFFFF"/>
<path d="M52.5136 22.576C52.5136 28.744 53.7001 32.211 56.9982 35.544C60.2164 38.839 64.1182 40.448 68.9052 40.467C71.7811 40.486 73.3099 40.161 75.9444 38.992C80.0478 37.153 82.9836 33.954 84.5124 29.682C85.156 27.881 85.176 27.805 85.2568 23.591L85.3377 19.338H68.9262H52.5136V22.576Z" fill="#FFFFFF"/>
<path d="M64.7829 45.984C60.2773 46.501 56.2149 47.555 53.298 48.934C50.4619 50.294 50.2603 50.562 42.9597 62.764L36.5232 73.51L27.573 73.587C18.6427 73.644 18.6228 73.644 17.557 74.104C15.5662 74.966 14.0973 77.073 14.0973 79.104C14.0973 81.058 15.5253 83.203 17.4562 84.104L18.4212 84.564L30.7303 84.622L43.0195 84.679L46.3186 81.154L49.5967 77.629L49.6566 83.357C49.6765 86.518 49.7773 89.065 49.8781 89.027C49.9789 88.989 58.6278 80.139 69.0858 69.354L88.1328 49.739L87.3484 49.298C85.3576 48.168 81.5157 46.999 77.6538 46.348C74.8188 45.869 67.4982 45.659 64.7829 45.984Z" fill="#FFFFFF"/>
<path d="M15.5053 58.991V69.91H23.4496H31.395V58.991V48.072H23.4507H15.5064V58.991H15.5053Z" fill="#FFFFFF"/>
<path d="M72.6064 80.138L54.3837 98.93L72.5865 98.987C82.6024 99.006 90.8292 99.006 90.8691 98.968C90.909 98.93 90.909 90.444 90.889 80.119L90.8292 61.328L72.6064 80.138Z" fill="#FFFFFF"/>
</svg>
